<svg version="1" xmlns="http://www.w3.org/2000/svg" width="1066.667" height="1066.667" viewBox="0 0 800.000000 800.000000"><path d="M552 .6c-.8.1-4.1.6-7.2.9-6.4.7-6.1.3-7.4 12.5-.3 3.6-.8 7.3-.9 8.2-.2 1-.7 6.2-1.1 11.5-.3 5.4-.8 11.1-.9 12.8-.2 1.6-.3 4.5-.4 6.2-.1 2.8-.5 3.3-2.7 3.3-4.3 0-16.5 4.6-30.7 11.5-7.3 3.6-13.6 6.5-13.9 6.5-.4 0-1.3-.6-2-1.3-1.1-1.1-26.1-21.7-31.2-25.7-1-.8-3.3-2.7-5-4.1-3-2.5-3.2-2.6-5.2-1-1.1.9-3.8 2.9-6 4.6-4.8 3.7-21.3 20.3-26.3 26.5-2 2.4-4.6 5.6-5.8 7-1.3 1.4-2.3 2.9-2.3 3.5 0 1.2 5.9 8.9 21.4 27.4l12 14.4-1.9 3.1c-6.1 10.4-9.8 18.4-12.9 27.9-2 5.9-3.6 11.4-3.6 12.2 0 1.7-1.9 2.2-11.5 3-3.8.4-8.3.8-10 1-1.6.2-6.1.7-9.8 1-3.7.4-7.7.8-8.7 1-1 .2-4.5.6-7.7 1-3.1.3-5.8.7-5.9.8-2 2.1-2.8 45.1-1 52.7.4 1.4.9 3.8 1.2 5.5.3 1.6.6 3 .7 3.1.1.1 3.6.5 7.7.9 4.1.3 9.1.8 11 1 1.9.2 6.7.6 10.5.9 22.1 1.9 23.5 2.2 23.5 4.4 0 6.3 14.5 40.5 18.1 42.7.5.4.9 1 .9 1.4 0 .6-5.1 7.1-15.4 19.2-1.5 1.9-6.2 7.6-10.3 12.7l-7.5 9.2 2.5 3.8c9.9 14.1 38.8 41.5 41.9 39.6 1-.6 26.7-21.9 33.2-27.5 7.8-6.7 6.1-6.6 16.6-.8 6.4 3.7 18.1 8.2 29.3 11.4 3.1.9 5.7 2.2 5.8 2.8 0 .7.2 1.9.4 2.8.1.9.6 4.9.9 9 .4 4.1.9 9.2 1.1 11.4.3 2.2.7 6.2 1 9 .6 5.3 1.5 12.4 2 16.5.2 1.4.4 2.8.4 3.1.3 2.1 59.6 1.7 61.7-.4.6-.5 1.3-6 1.9-14.4.4-4.8.9-9.6 1.1-10.6.2-1 .6-5.8 1-10.5.3-4.8.7-9.8.9-11.2.2-1.4.4-3.4.4-4.6.1-1.7 1.8-2.6 10.9-5.3 10.5-3.2 25.6-10.1 31.3-14.3l2.8-2.1 6.8 5.7c3.7 3.1 13.2 10.9 21 17.2l14.2 11.5 4.8-3.2c7.7-5.3 38.4-37.9 38.3-40.7-.1-1.1-2.9-4.5-21.5-26.6-6.1-7.2-11.4-13.6-11.8-14.3-.4-.6.8-4 2.7-7.5 4.5-8.1 11.4-25.5 12.2-30.7.4-2.2 1.2-4.5 1.8-5 .6-.5 5.1-1.2 10-1.6 5-.4 9.7-.8 10.6-1 .8-.2 5.8-.6 11-.9 5.2-.4 10.4-.9 11.5-1.1 1.1-.2 3.4-.4 5-.4 4.7-.2 5.4-1.2 6.2-9.2 1.6-15.7.6-52.1-1.5-54-.4-.4-4.5-1-9.2-1.4-4.7-.3-10.1-.8-12-1.1-1.9-.2-6-.6-9-.9-3-.2-8.9-.7-13-1.1-4.1-.3-8.2-1-9.1-1.5-.9-.5-1.9-2.7-2.2-5.1-.8-5.5-7.3-22.2-12.5-31.8l-4-7.5 9-11c4.9-6.1 12.6-15.4 17-20.8l8-9.8-5.6-6.7c-3-3.7-7.9-9.2-10.9-12.3C713 59 692.4 41 691.4 41c-.7 0-21.1 15.9-25.9 20.1-14 12.5-16.8 14.2-19 12-2.5-2.4-24.1-12.3-31.3-14.4-4.5-1.3-8.4-2.5-8.6-2.8-.5-.5-.8-3.4-2.1-17.4-.4-3.9-.8-8.1-1-9.5-.2-1.4-.9-7.8-1.6-14.3-.7-6.6-1.7-12.1-2.3-12.3-4.1-1.3-42.8-2.8-47.6-1.8zm40.5 132.8c18.6 5.9 35.6 20.5 44.4 38 3.4 6.8 5.2 11.1 5.2 12.3 0 .2.5 1.7 1 3.5 1.6 5.5 2.2 10.9 2.2 19.8-.1 22.5-10.5 43.8-28.5 58.2-19 15.2-40.2 19.7-67.2 14.3-5.1-1-14.9-5.6-21.6-10-16-10.6-27.5-27.3-32.1-46.3-2-8.1-2.3-24.4-.7-31.4.5-2.3 1.1-5.1 1.3-6.1 1.2-5.6 4.7-13.3 10.3-22.2 1.4-2.2 6.4-7.9 11.2-12.6 7.1-7 10.4-9.4 18.1-13.2 12.1-5.9 20-7.5 35.9-7.2 10.1.3 14 .8 20.5 2.9z"/><path d="M558.5 141.8c-6.3 1.2-17.9 5.9-23.5 9.6-14.7 9.7-26.1 26.8-28.8 43.1-1.1 7.2-.5 22 1.3 28 8.1 28 33.2 48.1 60.7 48.7 15.9.3 27.3-3.4 39.8-12.8 21.3-16 30.5-39.9 25.4-66.4-5.6-29.6-34.4-52-65.4-50.8-4.1.1-8.4.4-9.5.6zm27 18.1c10.9 3.8 21.4 12.3 26.9 21.6 7.2 12.2 7.9 32.4 1.5 46-3 6.3-12.3 16.1-19.3 20.4-15.7 9.4-34.9 9.1-50.2-.7-22-14.2-28.9-41.7-16.3-65.2 6.3-11.8 16.9-19.8 30.8-23.3 7.3-1.9 19.4-1.3 26.6 1.2zM320.4 270.8c-4.1 9.6-18.3 48.2-20.6 56.2-.5 1.9-1.3 3.8-1.6 4.1-.4.4-7 .9-14.7 1.3-7.7.3-16.9 1-20.5 1.6-3.6.6-8.2 1.3-10.2 1.5-2 .3-7.2 1.6-11.4 2.9-4.3 1.4-8.1 2.3-8.4 2.1-.4-.2-2.8-3.5-5.3-7.2s-11.3-16-19.5-27.3c-13.8-18.9-15.2-20.5-17.9-20.4-6.6.3-44.5 20.9-57.8 31.4-10.2 8.1-10 7.1-4.9 17.5 2.4 4.9 5.4 11.5 6.8 14.5 1.4 3 5 10.9 8.1 17.5 3.1 6.6 6.5 13.9 7.5 16.2l1.9 4.2-2.7 2.8c-14.7 15.6-29 34.2-34.5 44.9-1.6 3.1-1.7 3.1-6.4 2.2-2.6-.5-6.4-1.1-8.3-1.4-1.9-.3-4.2-.7-5-.9-.8-.3-3.2-.7-5.4-1.1-2.1-.3-4.8-.8-6-1-3.9-.8-35.1-5.6-37-5.8-1.5-.1-2.6 1.5-4.9 6.9-3.8 9.2-8.5 22.5-9.1 26.1-.3 1.6-.8 4-1.1 5.4-.2 1.4-.7 3.6-.9 5-.3 1.4-1 5-1.6 8-.6 3-1.3 7.3-1.6 9.5-.3 2.2-.9 5.6-1.2 7.5-1.8 9.2-2.5 8.6 15.8 15.7 9.1 3.5 18.3 7 20.5 7.8 2.2.8 9 3.4 15 5.7l11 4.4.6 14.4c.6 13.1 1.4 20.3 2.3 21.9.2.3.7 3 1.1 5.9.3 2.8 1.7 9.1 3 13.9 2.3 8.1 2.3 8.8.7 9.9-.9.6-5.5 3.9-10.2 7.3-4.7 3.3-9.3 6.6-10.3 7.3-2.8 1.9-12 8.6-23.4 17l-10.2 7.5 4.5 9.9c7.2 16 17.5 33.6 30.1 51.3 5.7 7.9 5.9 8 14.4 3.9 4.1-2 9.9-4.7 12.9-6.1 3-1.3 9.1-4.1 13.5-6.2 4.4-2 9.4-4.2 11-5 1.7-.7 6.1-2.7 9.9-4.4 7.8-3.6 6.3-4.1 16.8 5.8 8.3 7.9 17.3 14.5 29.7 21.9 5.1 3.1 9.5 6.2 9.8 6.9.3.7-.2 5.5-1.1 10.6-.9 5-1.8 10.8-2.1 12.7-.3 1.9-.7 4.6-1 6-.3 1.4-.7 3.8-.9 5.5-1.2 7.6-2.7 18.3-3 21-.2 1.6-.7 5.1-1.1 7.6l-.7 4.7 7.9 3c4.3 1.6 10.5 3.8 13.8 4.7 3.3 1 6.9 2.1 8 2.6 2.8 1.1 27.6 6.6 35.5 7.9 3.6.6 7.7 1.3 9.1 1.6 2.6.5 2.8.1 9.7-17.3 6.5-16.3 9.8-25.1 15.6-41.8l2.1-6 9-.1c15.6-.2 24.6-1.3 39.8-5.1 8.1-2 14.9-3.4 15-3.2.5.5 21.4 30.1 30 42.4 3.9 5.5 7.9 10.9 8.9 12.1l1.8 2.1 17.3-8.6c9.5-4.7 21.3-11.3 26.2-14.6 10-6.7 23.8-17.3 24.3-18.7.2-.5-.3-2.3-1.1-4.1-.8-1.8-4.7-10.2-8.5-18.7-9.1-20.1-13.8-30.5-16.4-35.7-1.2-2.4-1.8-4.6-1.4-5 10.8-10.6 24.6-28.6 31.2-40.6 4.1-7.4 4.1-7.4 13.7-5.7 3.1.6 6.9 1.3 8.4 1.5 1.5.2 11.1 1.8 21.3 3.5 10.2 1.7 19.9 3.3 21.5 3.6 1.7.2 4.1.7 5.6 1 2.3.4 2.7 0 4.6-4.8 4.5-11.3 13.8-41.7 14.8-48.4.3-2.3 1.1-7.5 1.8-11.5 2.2-12.9 2.3-12.7-6.3-16.1-4.1-1.7-18.3-7-31.4-11.9-13.2-4.9-24.2-9.2-24.5-9.5-.3-.3-.6-4.7-.7-9.9-.2-9.1-1.1-21.3-1.8-22.4-.2-.3-.7-2.6-1-5.1-.3-2.5-.8-5.4-1-6.5-1.1-5-3.7-15.5-4.1-16.7-.4-.9 2.7-3.7 8.5-7.8 7.3-5.2 45.1-33.1 46.9-34.7 1.5-1.2-11-26.8-20.1-41.3-7.6-12.1-18.8-27-20.4-27-1.2 0-6.2 2.1-19.2 8.1-4.6 2.2-8.5 3.9-8.7 3.9-.1 0-7.8 3.6-17 8l-16.8 8.1-3.2-3.1c-13-12.6-19.9-18.1-35.5-28.3-10.2-6.7-10-6.4-8.6-14.7.4-2.5 1.4-8.8 2.2-14 .8-5.2 1.9-12.2 2.4-15.5.5-3.3 1.2-7.8 1.5-10 .3-2.2 1-6.5 1.5-9.5s1.2-6.8 1.4-8.3c.5-2.6.1-3-4.7-5.1-7.6-3.4-27.9-10.3-32-11-1.9-.3-4.6-1-5.9-1.5-1.9-.8-19-4.4-31.1-6.5-2.4-.4-2.9 0-4.3 3.2zm-15.9 164.5c16 2.1 34.9 10 47.7 19.8 18.5 14.4 33.2 39.6 37.3 63.7 1.9 11.3.2 28.7-4.1 43.2-9 29.9-30.8 52.1-62.2 63.4-7.3 2.6-8.7 3-17.7 4.6-13.4 2.4-36-.9-52.4-7.5-23.8-9.7-43.1-29.8-53.3-55.5-8.8-22.2-8.3-47.3 1.2-71.5 16-40.4 59.7-65.8 103.5-60.2z"/><path d="M284.8 448.5c-.2.1-2.3.5-4.8.8-15.9 1.9-36 12.4-48.4 25.2-19.1 19.9-27.9 55.9-20 82.5 1.7 5.8 6.5 15.9 8.9 18.8.8.9 2.7 3.6 4.2 5.9 9.3 13.9 25.7 25.7 43.7 31.2 9.8 3 11 3.2 22.1 3.6 39 1.5 73.8-24.7 83.8-63 2.2-8.5 2.9-26.5 1.3-35.5-2.4-13.1-11.9-31.6-21.8-42.5-12.3-13.4-25.8-20.9-46.4-25.5-4.6-1-21.8-2.2-22.6-1.5zm21.1 23.2c4.1.8 8.2 1.9 9 2.3.9.4 4.3 2 7.6 3.6 8 3.7 20.6 16.5 25.7 26 5.5 10.4 7.6 19.1 7.2 30.4-.3 12.2-.8 14.5-5.1 24-4.5 10-12.6 20-20.3 25-1.2.8-3.5 2.4-4.9 3.6-7.3 5.7-21.8 9.6-34 9-30.1-1.6-52.9-20.4-59.7-49.5-1.8-7.6-2-22.3-.4-26.7.6-1.6 1.1-3.1 1.1-3.4-.3-1.9 3.7-10.9 7.1-16.1 9.8-15.3 25.5-25.8 43.8-29.4 7.3-1.4 12-1.1 22.9 1.2z"/></svg>